<?xml version="1.0" encoding="UTF-8" standalone="no"?> <svg width="512" height="512" viewBox="0 0 512 512" fill="none" xmlns="http://www.w3.org/2000/svg">
<path fill-rule="evenodd" clip-rule="evenodd" d="M128 32C74.9807 32 32 74.9807 32 128V384C32 437.019 74.9807 480 128 480H384C437.019 480 480 437.019 480 384V128C480 74.9807 437.019 32 384 32H128ZM204 128C204 116.954 195.046 108 184 108C172.954 108 164 116.954 164 128V384C164 395.046 172.954 404 184 404C195.046 404 204 395.046 204 384V281.541L234.58 256.786L335.835 395.776C342.339 404.704 354.849 406.669 363.776 400.165C372.704 393.661 374.669 381.151 368.165 372.224L265.71 231.586L364.584 151.545C373.169 144.595 374.495 132.001 367.545 123.416C360.595 114.831 348.001 113.505 339.416 120.455L204 230.078V128Z" fill="black"/>
</svg>
